<svg width="180" height="180" viewBox="0 0 180 180" fill="none" xmlns="http://www.w3.org/2000/svg">
<path d="M0 0H180V180H0V0Z" fill="black"/>
<path d="M20.7533 92.7681C20.7533 92.4276 21.2492 92.0058 22.241 91.5025C23.2327 90.9844 23.8396 90.148 24.0617 88.9934C24.2837 87.824 24.3947 84.0049 24.3947 77.5362C24.3947 71.0526 24.2689 67.4408 24.0173 66.7007C23.7804 65.9605 22.8849 65.5905 21.3306 65.5905C19.7763 65.5905 18.6513 65.7829 17.9556 66.1678C17.2599 66.5526 16.6752 67.1151 16.2015 67.8553C15.2245 69.3651 14.6546 70.1201 14.4918 70.1201C13.7961 70.1201 13.4482 69.6908 13.4482 68.8322V68.1661C13.4482 65.1316 13.7961 63.4367 14.4918 63.0814C14.7582 62.9482 18.6217 62.8816 26.0822 62.8816L35.2081 62.9038C35.6965 62.9038 36.1924 62.8964 36.6957 62.8816L38.1612 62.8372C38.9161 62.8372 39.4194 63.0222 39.6711 63.3923C40.0707 63.9992 40.2706 65.5238 40.2706 67.9663C40.2706 69.2245 40.0707 69.8536 39.6711 69.8536C39.1234 69.8536 38.5387 69.3281 37.9169 68.2771C37.2952 67.2113 36.6291 66.486 35.9186 66.1012C35.2081 65.7015 34.0535 65.5016 32.4548 65.5016C30.8561 65.5016 29.9087 65.8643 29.6127 66.5896C29.3314 67.315 29.1908 71.1044 29.1908 77.9581C29.1908 84.7969 29.2722 88.6382 29.435 89.4819C29.5979 90.3257 29.9457 90.9696 30.4786 91.4137C30.6414 91.5469 31.0263 91.7615 31.6332 92.0576C32.2549 92.3536 32.5658 92.6275 32.5658 92.8791C32.5658 93.5156 32.0551 93.8339 31.0337 93.8339H29.5683L25.2163 93.7451C22.241 93.7451 20.7533 93.4194 20.7533 92.7681Z" fill="white"/>
<path d="M39.8744 92.6349C39.8744 92.3684 40.2001 91.9095 40.8514 91.2582C41.5175 90.5921 41.9098 89.8372 42.0282 88.9934C42.1614 88.1497 42.2281 84.4712 42.2281 77.9581C42.2281 71.4301 42.1022 67.2706 41.8506 65.4794C41.7322 64.6505 41.4731 64.0954 41.0735 63.8141C40.0225 63.074 39.497 62.6743 39.497 62.6151C39.497 62.3487 39.8522 62.0452 40.5628 61.7048C41.2733 61.3643 42.4205 61.1941 44.0044 61.1941C45.0406 61.1941 45.6993 61.5567 45.9805 62.2821C46.1878 62.815 46.2914 64.0214 46.2914 65.9013L46.2248 68.3438C46.1804 69.9868 46.1582 71.0896 46.1582 71.6521C46.1582 73.3988 46.4024 74.2722 46.8909 74.2722C46.9797 74.2722 47.8235 73.9613 49.4221 73.3396C51.0356 72.7179 52.4049 72.4071 53.5299 72.4071C55.9279 72.4071 57.6598 73.273 58.7256 75.0049C59.5841 76.426 60.0134 79.0609 60.0134 82.9095L59.9912 84.5748L59.969 85.3964L59.9468 87.8832C59.9468 89.3635 60.0578 90.2961 60.2799 90.6809C60.5019 91.051 60.9238 91.4655 61.5455 91.9243C62.182 92.3684 62.5003 92.6793 62.5003 92.8569C62.5003 93.4342 61.4345 93.7229 59.3029 93.7229L58.5258 93.7673L56.1721 93.8561C54.8399 93.8561 54.1738 93.6044 54.1738 93.1012C54.1738 92.8643 54.4106 92.4498 54.8843 91.8577C55.3728 91.2656 55.6688 90.8586 55.7725 90.6365C55.8761 90.3997 55.9279 89.2377 55.9279 87.1505L55.8835 85.5296L55.9057 83.0206C55.9057 79.6752 55.6022 77.5066 54.9953 76.5148C54.4032 75.523 53.4855 75.0271 52.242 75.0271C51.0134 75.0271 49.9032 75.3084 48.9114 75.8709C47.9345 76.4186 47.2684 77.1069 46.9131 77.9359C46.5578 78.7648 46.3802 80.9852 46.3802 84.597C46.3802 88.1941 46.469 90.185 46.6466 90.5699C46.8391 90.9548 47.2091 91.384 47.7568 91.8577C48.3045 92.3166 48.5784 92.6275 48.5784 92.7903C48.5784 93.412 47.1277 93.7229 44.2264 93.7229C41.3251 93.7229 39.8744 93.3602 39.8744 92.6349Z" fill="white"/>
<path d="M68.6765 81.1998H69.2538L73.4948 80.9112C74.0129 80.8372 74.3903 80.8002 74.6272 80.8002C75.6041 80.8002 76.2851 80.6077 76.6699 80.2229C76.8328 80.06 76.9142 79.6752 76.9142 79.0683C76.9142 77.662 76.4997 76.5 75.6708 75.5822C74.8566 74.6497 73.8722 74.1834 72.7176 74.1834H72.2736C70.9413 74.1834 69.7497 74.7607 68.6987 75.9153C67.6625 77.0699 67.1444 78.3725 67.1444 79.8232L67.1 80.1118V80.2451C67.1 80.8224 67.4109 81.111 68.0326 81.111C68.3287 81.1702 68.5433 81.1998 68.6765 81.1998ZM66.9668 84.9301C66.9668 86.9877 67.6255 88.6086 68.943 89.7928C70.2604 90.977 71.9923 91.5691 74.1387 91.5691C75.0268 91.5691 76.1963 91.236 77.6469 90.5699C79.0976 89.9038 79.8451 89.5707 79.8895 89.5707C80.4076 89.5707 80.6666 89.815 80.6666 90.3035C80.6666 91.2212 79.6379 92.1834 77.5803 93.19C76.174 93.8709 74.6716 94.2113 73.0729 94.2113H72.5622C69.424 94.2113 66.9668 93.2344 65.1905 91.2804C63.4142 89.3117 62.526 86.7508 62.526 83.5979V83.0872C62.526 83.0576 62.526 83.0206 62.526 82.9762C62.526 81.6735 62.7851 80.3635 63.3032 79.0461C64.3986 76.2188 66.1379 74.2722 68.5211 73.2064C70.0162 72.5403 71.3854 72.2072 72.6288 72.2072H73.6058C75.5449 72.2072 77.2324 72.8289 78.6683 74.0724C79.438 74.7385 80.0375 75.5822 80.4668 76.6036C80.8961 77.625 81.1107 78.528 81.1107 79.3125V79.7788C81.1107 80.9038 80.6518 81.6587 79.7341 82.0436C79.2012 82.2656 77.262 82.4951 73.9166 82.7319C70.5861 82.9688 68.7135 83.1464 68.299 83.2648C67.4109 83.5164 66.9668 84.0715 66.9668 84.9301Z" fill="white"/>
<path d="M31.389 114.772V114.506C31.389 113.529 30.1308 109.895 27.6143 103.604C27.259 102.715 27.0444 102.271 26.9704 102.271C26.9112 102.271 26.134 104.255 24.639 108.222C23.1587 112.189 22.4186 114.343 22.4186 114.683C22.4186 114.95 23.1291 115.083 24.5502 115.083H28.3692C30.3824 115.083 31.389 114.979 31.389 114.772ZM12.7599 126.718C12.7599 126.422 13.2039 125.993 14.0921 125.43C14.9951 124.868 15.6908 124.039 16.1793 122.943C16.1941 122.899 16.6974 121.596 17.6891 119.035C18.6809 116.46 19.7689 113.766 20.9531 110.953C22.1521 108.126 22.9367 106.172 23.3067 105.091C23.6768 103.996 24.0913 102.708 24.5502 101.228C25.009 99.7475 25.3347 98.8446 25.5271 98.5189C26.1192 97.5123 26.9186 97.009 27.9252 97.009C28.2656 97.009 28.6209 97.1423 28.991 97.4087C30.1012 98.2229 31.389 100.776 32.8544 105.069C33.4317 106.757 34.653 110.109 36.5181 115.127C38.3832 120.146 39.4934 123.025 39.8487 123.765C40.2039 124.505 40.6776 125.045 41.2697 125.386C42.4836 126.081 43.0905 126.592 43.0905 126.918C43.0905 127.495 41.9507 127.784 39.6711 127.784H37.051C34.4605 127.784 33.1653 127.517 33.1653 126.984C33.1653 126.629 33.4095 126.192 33.898 125.674C34.3865 125.141 34.6308 124.601 34.6308 124.053C34.6308 123.491 34.3347 122.477 33.7426 121.012C33.1653 119.531 32.736 118.599 32.4548 118.214C31.9367 117.503 30.8487 117.148 29.1908 117.148L27.903 117.104C27.4589 117.089 26.8002 117.081 25.9268 117.081C23.5436 117.081 22.1225 117.281 21.6637 117.681C21.2048 118.066 20.6571 119.08 20.0206 120.723C19.384 122.351 19.0658 123.461 19.0658 124.053C19.0658 124.646 19.3692 125.23 19.9762 125.808C20.5979 126.385 20.9087 126.725 20.9087 126.829C20.9087 127.347 20.1834 127.606 18.7327 127.606C14.7508 127.606 12.7599 127.31 12.7599 126.718Z" fill="white"/>
<path d="M59.2594 110.043C59.2446 111.064 59.0299 111.804 58.6155 112.263C58.3194 112.589 57.9864 112.752 57.6163 112.752C57.4535 112.752 57.2832 112.722 57.1056 112.663C56.5135 112.47 55.988 111.952 55.5291 111.109C54.5521 109.362 53.1681 108.488 51.377 108.488C49.6007 108.488 48.2314 109.31 47.2692 110.953C46.3219 112.596 45.8482 114.72 45.8482 117.326C45.8482 119.916 46.4551 121.981 47.6689 123.521C48.8827 125.06 50.622 125.83 52.8868 125.83C54.2191 125.83 55.5883 125.378 56.9946 124.475C57.8087 123.957 58.3934 123.698 58.7487 123.698C59.104 123.698 59.2816 123.846 59.2816 124.142V124.498C59.2816 125.238 58.5044 126.059 56.9502 126.962C55.4107 127.85 53.8268 128.294 52.1985 128.294H51.6878C48.5201 128.294 46.0258 127.317 44.2051 125.363C42.3844 123.41 41.474 120.863 41.474 117.725C41.474 114.572 42.3474 111.967 44.0941 109.91C44.9822 108.859 46.1294 108.015 47.5357 107.378C48.9567 106.742 50.437 106.424 51.9765 106.424H52.4872C54.752 106.424 56.5801 106.853 57.9715 107.711C58.8301 108.244 59.2594 109.021 59.2594 110.043Z" fill="white"/>
<path d="M59.374 108.067C59.374 107.726 59.744 107.349 60.4841 106.934C61.2391 106.52 61.7202 106.164 61.9274 105.868C62.1494 105.558 62.5269 104.647 63.0598 103.137C63.6075 101.627 64.1774 100.873 64.7695 100.873C65.3764 100.873 65.7835 101.109 65.9907 101.583C66.0795 101.805 66.1906 102.412 66.3238 103.404C66.457 104.381 66.7013 105.076 67.0565 105.491C67.4118 105.891 68.2629 106.246 69.61 106.557C70.957 106.868 71.6305 107.297 71.6305 107.845C71.6305 108.377 70.8978 108.762 69.4323 108.999C67.9669 109.221 67.1083 109.554 66.8567 109.998C66.383 110.812 66.1462 113.114 66.1462 116.904C66.1462 120.678 66.346 123.039 66.7457 123.987C67.1601 124.919 67.7892 125.386 68.633 125.386C69.1067 125.386 69.7506 125.26 70.5647 125.008C71.3937 124.742 71.8896 124.609 72.0524 124.609C72.5409 124.609 72.7851 124.897 72.7851 125.475C72.7851 126.185 72.0006 126.888 70.4315 127.584C69.5286 127.984 68.5738 128.183 67.5672 128.183C66.5754 128.183 65.6651 127.954 64.8361 127.495C64.022 127.036 63.4003 126.4 62.971 125.586C62.3345 124.387 62.0162 121.848 62.0162 117.97V116.127L61.9718 114.35C61.9718 112.47 61.8238 111.183 61.5277 110.487C61.2465 109.791 60.9208 109.325 60.5508 109.088C59.7662 108.6 59.374 108.259 59.374 108.067Z" fill="white"/>
<path d="M95.3923 126.762C95.3923 126.97 95.1333 127.236 94.6152 127.562C94.0971 127.873 93.2311 128.028 92.0173 128.028C90.8035 128.028 90.0264 127.91 89.6859 127.673C89.3454 127.436 89.0494 127.007 88.7977 126.385C88.5609 125.763 88.3389 125.452 88.1316 125.452C87.9392 125.452 87.5173 125.689 86.866 126.163C84.9268 127.569 83.1135 128.272 81.426 128.272C81.4112 128.272 81.3964 128.272 81.3816 128.272H80.7155C78.2583 128.272 76.4893 127.251 75.4088 125.208C74.8463 124.142 74.565 121.404 74.565 116.993C74.565 112.581 74.4688 110.191 74.2764 109.821C74.0987 109.436 73.6176 109.11 72.8331 108.844C72.0634 108.577 71.6785 108.229 71.6785 107.8L71.9005 107.423C72.537 106.89 74.1579 106.623 76.7632 106.623C77.7994 106.623 78.4063 107.104 78.5839 108.067C78.8504 109.547 78.9836 112.263 78.9836 116.215C78.9836 120.153 79.176 122.536 79.5609 123.365C80.2418 124.816 81.3668 125.541 82.9359 125.541C83.8241 125.541 84.7344 125.312 85.667 124.853C86.5995 124.379 87.2879 123.743 87.7319 122.943C88.1908 122.144 88.4203 119.931 88.4203 116.304C88.4203 112.663 88.3537 110.583 88.2204 110.065C88.0872 109.547 87.7467 109.088 87.1991 108.688C86.6366 108.289 86.3553 107.911 86.3553 107.556C86.3553 106.979 87.9096 106.69 91.0181 106.69C91.7731 106.69 92.2764 106.831 92.528 107.112C92.7944 107.378 92.9277 107.904 92.9277 108.688L92.9055 109.332L92.8167 110.62L92.7056 116.571C92.7056 120.627 92.8092 123.069 93.0165 123.898C93.2237 124.712 93.6678 125.297 94.3487 125.652C95.0444 126.007 95.3923 126.377 95.3923 126.762Z" fill="white"/>
<path d="M105.122 117.637C103.198 117.637 101.636 118.103 100.437 119.035C99.238 119.968 98.6385 120.982 98.6385 122.077V122.832C98.6681 123.01 98.6829 123.158 98.6829 123.276C98.6829 123.987 98.9938 124.586 99.6155 125.075C100.252 125.563 100.881 125.808 101.503 125.808H102.213C103.19 125.808 104.293 125.378 105.522 124.52C106.41 123.898 106.854 123.113 106.854 122.166C106.884 121.988 106.898 121.855 106.898 121.766L106.943 121.189V120.501L106.965 120.079V118.547C106.965 117.896 106.773 117.57 106.388 117.57H105.833C105.566 117.614 105.329 117.637 105.122 117.637ZM103.235 106.268H103.79C106.884 106.268 109 107.208 110.14 109.088C110.836 110.243 111.184 112.922 111.184 117.126C111.184 121.33 111.243 123.632 111.361 124.031C111.554 124.697 111.976 125.141 112.627 125.363C113.693 125.734 114.226 125.985 114.226 126.118V126.451C114.226 126.748 113.885 127.095 113.204 127.495C112.523 127.895 111.517 128.095 110.185 128.095C109.415 128.095 108.719 127.762 108.097 127.095C107.476 126.414 107.069 126.074 106.876 126.074C106.861 126.074 106.04 126.451 104.412 127.206C102.783 127.961 101.503 128.339 100.57 128.339H99.5267C98.1056 128.339 96.9066 127.843 95.9296 126.851C94.9675 125.845 94.4864 124.757 94.4864 123.587V123.032C94.4864 121.167 95.1895 119.672 96.5958 118.547C97.5579 117.777 98.942 117.141 100.748 116.637C100.955 116.578 101.769 116.4 103.19 116.104C104.611 115.794 105.477 115.564 105.788 115.416C106.602 115.016 107.009 114.15 107.009 112.818C107.009 111.471 106.647 110.413 105.921 109.643C105.196 108.859 104.204 108.466 102.946 108.466C101.688 108.466 100.592 109.155 99.6599 110.531C98.7273 111.908 97.7578 112.596 96.7512 112.596C96.5292 112.596 96.2479 112.433 95.9074 112.108C95.567 111.782 95.3967 111.271 95.3967 110.576C95.3967 109.495 95.9741 108.614 97.1287 107.933C99.0086 106.823 101.044 106.268 103.235 106.268Z" fill="white"/>
<path d="M115.673 124.32C115.925 122.81 116.051 118.473 116.051 111.308C116.051 104.129 115.969 100.155 115.807 99.3849C115.659 98.6151 115.252 98.0822 114.585 97.7862C113.623 97.3717 113.142 97.0164 113.142 96.7204C113.142 96.4095 113.327 96.1653 113.697 95.9877C114.896 95.4104 116.65 95.1217 118.96 95.1217C119.833 95.1217 120.329 95.5732 120.447 96.4762C120.477 96.6834 120.492 98.7262 120.492 102.604L120.469 103.981V105.824L120.425 107.645V109.488C120.425 118.28 120.477 123.091 120.58 123.92C120.699 124.734 121.076 125.341 121.713 125.741C122.882 126.481 123.467 126.903 123.467 127.007C123.467 127.539 122.431 127.806 120.358 127.806L119.47 127.85L115.407 127.939H114.474C113.69 127.939 113.298 127.725 113.298 127.295C113.298 126.955 113.66 126.57 114.386 126.141C115.111 125.711 115.54 125.104 115.673 124.32Z" fill="white"/>
<path d="M24.9276 131.159C25.8898 131.159 26.3709 131.396 26.3709 131.869C26.3709 132.239 25.9712 132.617 25.1719 133.002C24.3873 133.387 23.8766 133.89 23.6398 134.512C23.403 135.133 23.2845 137.583 23.2845 141.861V142.86L23.3067 143.859V144.859L23.2845 145.347C23.2697 145.688 23.2623 146.028 23.2623 146.368L23.2179 147.368L23.1957 148.389V150.41L23.2179 151.942L23.2623 153.962L23.3067 154.961C23.3215 155.302 23.3289 155.627 23.3289 155.938C23.3289 157.626 23.551 158.758 23.9951 159.336C24.2319 159.646 24.7278 159.935 25.4827 160.201C26.2525 160.468 26.6373 160.786 26.6373 161.156C26.6373 161.778 26.1637 162.089 25.2163 162.089H24.2393L23.7286 162.067C23.403 162.052 23.0699 162.044 22.7294 162.044L21.7303 162C21.4046 161.985 21.0715 161.978 20.7311 161.978L18.7549 162.022C16.1941 162.022 14.9137 161.763 14.9137 161.245C14.9137 160.845 15.3503 160.446 16.2237 160.046C17.097 159.646 17.6299 159.18 17.8224 158.647C18.2072 157.581 18.3997 154.887 18.3997 150.565V149.566L18.3775 148.078C18.3775 147.738 18.3775 147.397 18.3775 147.057L18.3997 146.568C18.4145 146.228 18.4219 145.887 18.4219 145.547L18.4663 144.548C18.4811 144.207 18.4885 143.704 18.4885 143.038L18.4663 142.039L18.4441 141.528L18.4219 140.018C18.4219 137.339 18.222 135.488 17.8224 134.467C17.5855 133.875 17.1488 133.468 16.5123 133.246C15.3725 132.846 14.8026 132.461 14.8026 132.091C14.8026 131.499 15.9424 131.203 18.222 131.203L19.1768 131.225L19.6653 131.248H21.0863L23.9507 131.159H24.9276Z" fill="white"/>
<path d="M35.5012 161.023C35.5012 161.571 34.5464 161.845 32.6368 161.845L30.5941 161.778C30.15 161.763 29.4839 161.756 28.5957 161.756C27.2191 161.756 26.5308 161.4 26.5308 160.69C26.5308 160.453 26.9008 160.157 27.641 159.802C28.3959 159.447 28.8622 159.054 29.0398 158.625C29.2322 158.181 29.3285 156.997 29.3285 155.072V151.164L29.284 149.788V147.279C29.284 146.065 29.1952 145.192 29.0176 144.659C28.8548 144.111 28.4477 143.667 27.7964 143.326C27.1451 142.971 26.8194 142.72 26.8194 142.572C26.8194 142.127 27.0563 141.794 27.5299 141.572C28.4773 141.143 29.7725 140.928 31.4156 140.928C32.2594 140.928 32.8367 141.254 33.1475 141.905C33.6508 142.927 33.9321 143.438 33.9913 143.438C34.0357 143.438 34.354 143.23 34.9461 142.816C37.0036 141.336 38.8614 140.588 40.5192 140.573H41.2076C43.8424 140.588 45.6928 141.735 46.7586 144.015C47.2915 145.169 47.5579 148.567 47.5579 154.206C47.5579 156.96 47.6541 158.529 47.8465 158.914C48.0538 159.299 48.5349 159.669 49.2898 160.024C50.0595 160.379 50.4444 160.69 50.4444 160.956C50.4444 161.578 48.4165 161.889 44.3605 161.889H43.6944C42.3918 161.889 41.7405 161.689 41.7405 161.289C41.7405 160.89 41.9699 160.475 42.4288 160.046C42.8877 159.617 43.1615 159.276 43.2503 159.025C43.354 158.773 43.4058 158.166 43.4058 157.204C43.4058 156.242 43.3984 155.531 43.3836 155.072L43.3391 153.696V150.831C43.3391 147.782 43.0283 145.739 42.4066 144.703C41.7997 143.652 40.6969 143.127 39.0982 143.127C38.2989 143.127 37.4551 143.363 36.5669 143.837C35.6788 144.296 34.9609 144.91 34.4132 145.68C33.8655 146.45 33.5916 148.404 33.5916 151.542L33.4584 155.716C33.4584 157.137 33.562 158.122 33.7692 158.669C33.9765 159.202 34.3169 159.683 34.7906 160.113C35.2643 160.542 35.5012 160.845 35.5012 161.023Z" fill="white"/>
<path d="M57.0878 162.6H56.4883L55.911 162.577C51.6331 162.577 49.4941 162.252 49.4941 161.6C49.4941 161.304 49.8864 160.942 50.6709 160.512C51.4702 160.083 51.9513 159.491 52.1141 158.736C52.2918 157.981 52.3806 155.664 52.3806 151.786C52.3806 147.908 52.2918 145.695 52.1141 145.147C51.9365 144.6 51.5739 144.104 51.0262 143.66C50.4933 143.215 50.2268 142.845 50.2268 142.549C50.2268 142.253 50.4859 141.735 51.0039 140.995C51.522 140.24 51.9069 139.456 52.1586 138.641C53.1059 135.414 53.9497 133.312 54.6898 132.336C56.2293 130.293 58.4719 129.271 61.4176 129.271C62.7498 129.271 63.7934 129.523 64.5484 130.026C65.3033 130.53 65.6808 131.092 65.6808 131.714C65.6808 132.321 65.5179 132.839 65.1923 133.268C64.8666 133.697 64.4151 133.912 63.8378 133.912C63.2753 133.912 62.5722 133.586 61.7285 132.935C60.8995 132.269 60.1002 131.936 59.3304 131.936C58.5607 131.936 57.939 132.528 57.4653 133.712C56.9916 134.882 56.7548 136.088 56.7548 137.331C56.7548 138.575 57.0582 139.47 57.6651 140.018C57.7836 140.137 58.3905 140.477 59.4859 141.039C60.5813 141.587 61.129 142.031 61.129 142.372C61.129 142.712 60.5368 143.06 59.3526 143.415C58.1832 143.771 57.4653 144.222 57.1989 144.77C56.7844 145.613 56.5771 148.034 56.5771 152.03C56.5771 156.012 56.6808 158.322 56.888 158.958C57.0952 159.595 57.6207 160.15 58.4645 160.623C59.323 161.097 59.7523 161.504 59.7523 161.845C59.7523 162.348 58.8641 162.6 57.0878 162.6Z" fill="white"/>
<path d="M70.9253 142.305H70.459C68.8604 142.305 67.5059 143.164 66.3957 144.881C65.5224 146.228 65.0857 148.248 65.0857 150.942V151.209L65.1079 151.498C65.1079 155.583 66.2033 158.344 68.3941 159.78C69.1786 160.283 70.0594 160.535 71.0363 160.535L71.2806 160.512C72.8645 160.512 74.1375 159.765 75.0997 158.27C76.0618 156.775 76.5429 154.836 76.5429 152.452V151.076C76.5429 148.5 76.01 146.398 74.9442 144.77C73.8933 143.127 72.5536 142.305 70.9253 142.305ZM81.2724 150.72V151.831C81.2724 153.192 80.9911 154.584 80.4286 156.005C79.348 158.773 77.4755 160.675 74.811 161.711C73.5232 162.215 72.2872 162.466 71.103 162.466H70.7477L70.3702 162.444C67.5873 162.444 65.2559 161.504 63.376 159.624C62.5174 158.766 61.8365 157.618 61.3332 156.183C60.8447 154.747 60.6005 153.4 60.6005 152.141V151.053C60.6005 149.662 60.8743 148.263 61.422 146.857C61.9845 145.451 62.6951 144.296 63.5536 143.393C64.427 142.475 65.5224 141.75 66.8398 141.217C68.1572 140.669 69.4303 140.396 70.6589 140.396H71.7469C74.3077 140.396 76.5355 141.343 78.4303 143.238C79.2444 144.052 79.9179 145.147 80.4508 146.524C80.9985 147.9 81.2724 149.299 81.2724 150.72Z" fill="white"/>
<path d="M90.4248 159.802C91.2242 160.216 91.6239 160.69 91.6239 161.223C91.6239 161.756 90.5285 162.022 88.3377 162.022H85.9841L85.0515 161.978L83.6748 161.956C81.9133 161.956 81.0326 161.652 81.0326 161.045C81.0326 160.734 81.3878 160.379 82.0984 159.979C82.8089 159.565 83.2752 159.032 83.4972 158.381C83.7341 157.729 83.8525 155.539 83.8525 151.808C83.8525 148.063 83.7415 145.813 83.5194 145.058C83.2974 144.289 82.8459 143.704 82.165 143.304C81.4989 142.905 81.1658 142.542 81.1658 142.216C81.1658 142.083 81.2768 141.935 81.4989 141.772C82.3574 141.136 83.8821 140.817 86.0729 140.817C86.961 140.817 87.5605 141.143 87.8714 141.794C88.3895 142.875 88.7077 143.415 88.8262 143.415C89.1518 143.415 89.5663 143.215 90.0696 142.816C91.6683 141.543 93.3114 140.906 94.9989 140.906C95.6206 140.906 96.1757 141.165 96.6641 141.683C97.1526 142.187 97.3969 142.764 97.3969 143.415C97.3969 144.052 97.2266 144.562 96.8862 144.947C96.5457 145.317 96.1239 145.502 95.6206 145.502C95.1321 145.502 94.5696 145.295 93.9331 144.881C93.2966 144.466 92.697 144.259 92.1345 144.259C90.8171 144.259 89.7587 145.229 88.9594 147.168C88.4857 148.352 88.2489 150.336 88.2489 153.118C88.2489 155.901 88.4117 157.611 88.7373 158.248C89.063 158.869 89.6255 159.387 90.4248 159.802Z" fill="white"/>
<path d="M111.923 158.159C112.012 157.611 112.056 155.605 112.056 152.141C112.056 148.663 111.863 146.428 111.479 145.436C110.975 144.118 110.058 143.46 108.725 143.46C107.408 143.46 106.246 143.845 105.239 144.614C104.248 145.369 103.589 146.235 103.263 147.212C102.952 148.174 102.797 151.564 102.797 157.382C102.797 158.299 103.049 159.113 103.552 159.824C104.055 160.535 104.307 160.993 104.307 161.201C104.307 161.63 103.3 161.845 101.287 161.845C99.2887 161.845 97.8676 161.674 97.0238 161.334C96.639 161.171 96.4465 160.897 96.4465 160.512C96.4465 160.424 96.7056 160.105 97.2237 159.558C97.7418 159.01 98.1044 158.492 98.3117 158.003C98.5189 157.5 98.6225 156.242 98.6225 154.229L98.6003 153.185L98.5115 151.098C98.4819 150.195 98.4671 148.959 98.4671 147.39C98.4671 145.821 98.3857 144.866 98.2229 144.525C98.06 144.17 97.7418 143.763 97.2681 143.304C96.8092 142.831 96.5798 142.468 96.5798 142.216L96.8906 141.75C97.4975 141.247 98.5485 140.995 100.044 140.995C100.917 140.995 101.642 141.328 102.22 141.994C102.797 142.646 103.211 142.971 103.463 142.971L104.129 142.638L105.794 141.617C107.201 140.832 108.525 140.44 109.769 140.44C111.027 140.44 111.982 140.588 112.633 140.884C113.299 141.18 114.017 141.661 114.787 142.327C115.557 142.979 116.112 143.304 116.452 143.304L117.185 142.905L118.007 142.372C119.058 141.706 119.975 141.239 120.76 140.973C121.559 140.706 122.507 140.573 123.602 140.573C124.712 140.573 125.697 140.84 126.555 141.373C127.428 141.905 128.095 142.623 128.553 143.526C129.264 144.947 129.619 148.426 129.619 153.962C129.619 156.316 129.686 157.737 129.819 158.225C129.967 158.714 130.374 159.239 131.04 159.802C131.706 160.35 132.039 160.749 132.039 161.001C132.039 161.593 130.108 161.889 126.244 161.889C124.912 161.889 124.246 161.704 124.246 161.334C124.246 161.171 124.438 160.72 124.823 159.979C125.208 159.225 125.4 158.344 125.4 157.337C125.4 150.928 125.178 147.16 124.734 146.035C124.29 144.896 123.683 144.141 122.914 143.771C122.44 143.549 121.789 143.438 120.96 143.438C120.131 143.438 119.28 143.741 118.406 144.348C117.548 144.94 116.993 145.658 116.741 146.502C116.489 147.345 116.363 149.551 116.363 153.118C116.363 156.671 116.482 158.655 116.719 159.069C116.793 159.202 117.148 159.484 117.785 159.913C118.421 160.342 118.739 160.764 118.739 161.178C118.739 161.741 116.556 162.022 112.189 162.022C110.546 162.022 109.725 161.808 109.725 161.378C109.725 160.949 109.947 160.542 110.391 160.157C111.323 159.358 111.834 158.692 111.923 158.159Z" fill="white"/>
<path d="M137.129 149.41H137.706L141.947 149.122C142.465 149.048 142.842 149.011 143.079 149.011C144.056 149.011 144.737 148.818 145.122 148.433C145.285 148.271 145.366 147.886 145.366 147.279C145.366 145.873 144.952 144.711 144.123 143.793C143.309 142.86 142.324 142.394 141.17 142.394H140.726C139.393 142.394 138.202 142.971 137.151 144.126C136.115 145.28 135.597 146.583 135.597 148.034L135.552 148.322V148.456C135.552 149.033 135.863 149.322 136.485 149.322C136.781 149.381 136.995 149.41 137.129 149.41ZM135.419 153.141C135.419 155.198 136.078 156.819 137.395 158.003C138.712 159.188 140.444 159.78 142.591 159.78C143.479 159.78 144.648 159.447 146.099 158.78C147.55 158.114 148.297 157.781 148.342 157.781C148.86 157.781 149.119 158.025 149.119 158.514C149.119 159.432 148.09 160.394 146.032 161.4C144.626 162.081 143.124 162.422 141.525 162.422H141.014C137.876 162.422 135.419 161.445 133.643 159.491C131.866 157.522 130.978 154.961 130.978 151.808V151.298C130.978 151.268 130.978 151.231 130.978 151.187C130.978 149.884 131.237 148.574 131.755 147.257C132.851 144.429 134.59 142.483 136.973 141.417C138.468 140.751 139.837 140.418 141.081 140.418H142.058C143.997 140.418 145.685 141.039 147.12 142.283C147.89 142.949 148.49 143.793 148.919 144.814C149.348 145.836 149.563 146.738 149.563 147.523V147.989C149.563 149.114 149.104 149.869 148.186 150.254C147.653 150.476 145.714 150.706 142.369 150.942C139.038 151.179 137.166 151.357 136.751 151.475C135.863 151.727 135.419 152.282 135.419 153.141Z" fill="white"/>
<path d="M158.804 159.802C159.603 160.216 160.003 160.69 160.003 161.223C160.003 161.756 158.908 162.022 156.717 162.022H154.363L153.431 161.978L152.054 161.956C150.293 161.956 149.412 161.652 149.412 161.045C149.412 160.734 149.767 160.379 150.478 159.979C151.188 159.565 151.654 159.032 151.876 158.381C152.113 157.729 152.232 155.539 152.232 151.808C152.232 148.063 152.121 145.813 151.899 145.058C151.677 144.289 151.225 143.704 150.544 143.304C149.878 142.905 149.545 142.542 149.545 142.216C149.545 142.083 149.656 141.935 149.878 141.772C150.737 141.136 152.261 140.817 154.452 140.817C155.34 140.817 155.94 141.143 156.251 141.794C156.769 142.875 157.087 143.415 157.205 143.415C157.531 143.415 157.946 143.215 158.449 142.816C160.048 141.543 161.691 140.906 163.378 140.906C164 140.906 164.555 141.165 165.043 141.683C165.532 142.187 165.776 142.764 165.776 143.415C165.776 144.052 165.606 144.562 165.265 144.947C164.925 145.317 164.503 145.502 164 145.502C163.511 145.502 162.949 145.295 162.312 144.881C161.676 144.466 161.076 144.259 160.514 144.259C159.196 144.259 158.138 145.229 157.339 147.168C156.865 148.352 156.628 150.336 156.628 153.118C156.628 155.901 156.791 157.611 157.117 158.248C157.442 158.869 158.005 159.387 158.804 159.802Z" fill="white"/>
<path d="M180 27.4737C180 42.647 167.7 54.9474 152.526 54.9474C137.353 54.9474 125.053 42.647 125.053 27.4737C125.053 12.3004 137.353 0 152.526 0C167.7 0 180 12.3004 180 27.4737Z" fill="#DB1E05"/>
</svg>
